<svg xmlns="http://www.w3.org/2000/svg" viewBox="0 0 100 100" fill-rule="evenodd"><rect x="0" y="0" width="100" height="100" fill="#e2e2e2" rx="50" ry="50"></rect><g class="t-group-origins" style="transform-origin:center;transform:scale(0.58);"><path d="M32.995 4.243a1.5 1.5 0 0 0-1.395.948L5.427 31.816a1.502 1.502 0 0 0-.895 1.17c-.07.25-.076.517-.014.77v57.431a1.5 1.5 0 0 0 1.072 1.438c.34.154.725.174 1.077.062h57.332a1.5 1.5 0 0 0 1.33-.806l25.763-26.653a1.5 1.5 0 0 0 1.396-1.497v-.26a1.516 1.516 0 0 0 0-.664V5.742a1.5 1.5 0 0 0-1.5-1.5H32.995ZM9.836 89.687h52.663V65.23H33.681L9.836 89.687Zm21.66-26.511V34.695H7.517v53.072l23.977-24.591Zm55.42 2.055L65.499 87.388V65.231h21.417ZM9.753 31.695 31.495 9.577v22.118H9.753ZM65.499 62.23h23.99V9.891l-23.99 24.196v28.144Zm-1.853-30.536h-29.15V7.243h53.393L63.646 31.695Zm-29.15 3h28.003V62.23H34.495V34.695Z" stroke-width="0" stroke="#000000" fill="#000000" stroke-width-old="0"></path></g></svg>
